<?xml version="1.0" encoding="utf-8"?>
<!-- Generator: Adobe Illustrator 25.4.0, SVG Export Plug-In . SVG Version: 6.00 Build 0)  -->
<svg version="1.1" id="Layer_1" xmlns="http://www.w3.org/2000/svg" xmlns:xlink="http://www.w3.org/1999/xlink" x="0px" y="0px"
	 viewBox="0 0 2068 395.3" style="enable-background:new 0 0 2068 395.3;" xml:space="preserve">
<style type="text/css">
	.st0{fill:none;}
	.st1{fill-rule:evenodd;clip-rule:evenodd;fill:#CBFC02;}
</style>
<g id="Exclusion_Zone">
	<rect x="-226.6" y="-333.3" class="st0" width="2524" height="1060.4"/>
</g>
<g>
	<path class="st1" d="M340.6,81.4c-27,0-58,5.5-78,15.5c-5.5,3-7.5,7.5-7.5,12v22.5c0,7.1,5.5,10,8.5,10c6,0,10.5-5.5,13.5-7.5
		c18.5-12.5,37-21,61.5-21c30.5,0,35,20,35,44.5l-0.1,0.9c0,11.5-3.9,13.6-47.4,19.1c-26.5,3.5-87,15.5-87,70c0,45,36,69,78,69
		c23,0,42-10,58-24l1,13c0,3.5,2.5,6,5,6h45.5c3.5,0,6-2.5,6-6V149.9C432.5,109.4,411,81.4,340.6,81.4L340.6,81.4z M372.6,263.3
		c0,6.5-17.1,24.1-40.1,24.1c-26.6,0-36.6-19.1-36.6-38.1c0-27.1,21.1-52.1,76.8-52.1V263.3L372.6,263.3z"/>
	<path class="st1" d="M503.7,1.5c-22.1,0-32.6,13-32.6,28.1c0,18,13,30.1,32.6,30.1c19.6,0,31.6-12.1,31.6-30.1
		C535.3,14.6,524.8,1.5,503.7,1.5L503.7,1.5z"/>
	<path class="st1" d="M475.1,93.3v212.8c0,3.4,2.5,6,5,6h48.2c3.5,0,6-2.6,6-6V93.3c0-3.5-2.5-6-6-6h-48.2
		C477.6,87.3,475.1,89.8,475.1,93.3L475.1,93.3z"/>
	<path class="st1" d="M8.5,299c84.3,39.6,204.2,16.6,204.2-84.3c0-92.8-159-86.8-159-144c0-23.1,22.1-38.6,50.1-38.6
		c25.1,0,44.2,8.5,64.2,23.1c5.5,4,9,6.5,13.5,6.5c5.5,0,7-3.5,7-8.1v-29c0-4.6-1-7.1-5.5-9.1C166.1,9,136,2.5,102.9,2.5
		C36.1,2.5,0,43.6,0,90.3c0,101.3,156.5,80.3,156.5,149c0,41.6-60.2,70.7-129.9,22c-6.5-4.5-9.5-7-14.1-7c-8.5,0-10.1,4.5-10.1,9
		v25.6C2.5,293.5,3.5,296,8.5,299L8.5,299z"/>
	<path class="st1" d="M584,93.3v212.8c0,3.4,2.5,6,5,6h48.2c3.5,0,6-2.6,6-6V134.5c9.5-5.5,29.6-15.5,46.6-15.5
		C723,118.9,725,139,725,156v150.1c0,3.4,2.5,6,5,6h48.2c3.5,0,6-2.6,6-6V151c0-40.6-21.6-68.8-69.8-68.8
		c-27.6,0-56.7,13.6-71.7,22.6h-1V93.3c0-3.5-2.5-6-6-6H589C586.5,87.3,584,89.8,584,93.3L584,93.3z"/>
	<path class="st1" d="M968.3,94.8C903.1,67.7,815.7,82.3,815.7,153c0,79.8,126.4,63.2,126.4,106.4c0,34.7-59.7,38.2-102.8,5
		c-3-2.5-6-4-9.5-4c-5,0-8,2-8,9v19.5c0,5.6,1.5,10,7.5,13c55.7,25.1,158,25.6,158-66.7c0-79.3-127.9-61.2-127.9-100.8
		c0-32.6,62.7-29.6,98.9-5c3,2,7,4,9.5,4c5,0,8-2,8-9v-16.6C975.8,102.3,974.3,97.3,968.3,94.8L968.3,94.8z"/>
	<path class="st1" d="M2048.9,94.8c-65.2-27.1-152.5-12.6-152.5,58.2c0,79.8,126.5,63.2,126.5,106.4c0,34.7-59.7,38.2-102.9,5
		c-3-2.5-6-4-9.5-4c-5,0-8,2-8,9v19.5c0,5.6,1.5,10,7.5,13c55.7,25.1,158,25.6,158-66.7c0-79.3-127.9-61.2-127.9-100.8
		c0-32.6,62.7-29.6,98.8-5c3,2,7,4,9.5,4c5,0,8.1-2,8.1-9v-16.6C2056.5,102.3,2054.9,97.3,2048.9,94.8L2048.9,94.8z"/>
	<path class="st1" d="M1556.3,154.5c0-24.1,8.5-39.1,60.7-25.6c6.5,1.5,10.5,3,16.1,3c3.5,0,6.5-3.5,6.5-7V95.3c0-5-3.5-9-10.1-10.5
		c-36.1-8.5-58.2,8-76.7,25.6l-1-0.5V93.3c0-3.5-2.5-6-6-6h-43.7c-2.5,0-5,2.6-5,6v212.8c0,3.4,2.5,6,5,6h48.1c3.5,0,6-2.6,6-6
		V154.5L1556.3,154.5z"/>
	<path class="st1" d="M1891.4,88.3c23.6,0,50.2-88.3,6.5-88.3h-23.6c-5.5,0-6.5,4-6.5,7c0,6,15,21.1,15,41.7c0,21-8,28.6-8,35.1
		c0,2.5,2.5,4.5,6,4.5H1891.4L1891.4,88.3z"/>
	<path class="st1" d="M1764.4,242.8l-3-9.5l-47.7-140.5c-1.5-4-3.5-5.5-8-5.5h-51.2c-3,0-4.5,1.5-4.5,4.5c0,1.5,0.5,3,2.5,8
		l83.3,202.2c14.1,34.1-27.1,58.7-66.7,47.7c-6-1.5-10-3-15.5-3c-3.5,0-6.5,3.5-6.5,7v28.6c0,6,4,13,26.1,13
		c53.2,0,81.8-27.1,107.4-90.8l82.3-206.2c1-3,2-4.5,2-6.5c0-2.5-2-4.5-4.5-4.5h-35.6c-3.5,0-6,2-7,5.5l-49.2,140.5L1764.4,242.8
		L1764.4,242.8z"/>
	<path class="st1" d="M1453.9,306.1V93.3c0-3.5-2.5-6-5-6h-48.2c-3.5,0-6,2.6-6,6v171.6c-9.5,5.5-29.6,15.5-46.6,15.5
		c-33.1,0-35.1-20-35.1-37.1v-150c0-3.5-2.5-6-5-6h-48.1c-3.5,0-6,2.6-6,6v155c0,40.6,21.6,68.7,69.8,68.7
		c27.6,0,56.7-13.6,71.7-22.5h1v11.6c0,3.4,2.5,6,6,6h46.7C1451.4,312.1,1453.9,309.5,1453.9,306.1L1453.9,306.1z"/>
	<path class="st1" d="M1014.4,8.5c0-3.5,2.5-6.1,5-6.1h48.2c3.5,0,6,2.5,6,6.1v100.3v-0.5c9.5-8,31.6-25.6,65.7-25.6
		c51.7,0,84.3,45.2,84.3,105.4c0,77.3-53.7,128.4-119.9,128.4c-36.1,0-62.7-12.6-80.3-26.1c-7.5-5.5-9-15-9-23V8.5L1014.4,8.5z
		 M1080.7,284c5,3,12.5,5.5,27.1,5.5c32.1,0,54.7-33.1,54.7-89.3c0-21.1-4.5-80.3-50.2-80.3c-18,0-31.1,10.1-38.6,15.6v135.5
		C1073.6,275.5,1074.6,280,1080.7,284L1080.7,284z"/>
</g>
</svg>
