<svg xmlns="http://www.w3.org/2000/svg" viewBox="0 0 205.77 82.56"><defs><style>.cls-1{fill:#cbfc02;}</style></defs><g id="Layer_2" data-name="Layer 2"><g id="Layer_1-2" data-name="Layer 1"><path class="cls-1" d="M0,41.27q0-19.49,0-39C0,.19.06.15,2.07.13c3.28,0,6.57.09,9.85,0,1.66-.07,1.84.67,1.83,2,0,9.43,0,18.85,0,28.27,0,1,0,2,0,3a.91.91,0,0,0,1,1H26.36c.66,0,1.05-.29,1.05-1,0-1,0-2,0-3V3C27.44,0,27.09.09,30.09.12s6.29.05,9.43,0c1.33,0,1.78.52,1.64,1.76a8,8,0,0,0,0,.85V79.82a8,8,0,0,0,0,.85c.14,1.23-.29,1.8-1.63,1.77-3.43-.07-6.86-.12-10.28,0-1.67.06-1.85-.68-1.84-2q.06-13.71,0-27.42c0-1.53.71-3.46-.38-4.5s-3-.31-4.52-.36c-2.28-.07-4.57.06-6.85,0-1.46-.07-2,.34-2,1.89.08,8.29,0,16.57,0,24.85,0,2,0,4,0,6,0,1-.18,1.6-1.39,1.59-3.71-.06-7.42,0-11.13,0C.31,82.42,0,82,0,81.11c0-1,0-2,0-3Z"/><path class="cls-1" d="M123.45,41.59c0,7.43,0,14.85,0,22.28,0,1.93.45,3.62,2.47,4.3a15.42,15.42,0,0,0,8.7.07,3.33,3.33,0,0,0,2.48-3.41c.14-4.85.07-9.71,0-14.57A2,2,0,0,0,135,48.14c-.29,0-.57,0-.86,0-3.86-.16-3.93-.16-3.84-4.22.08-3.1-.43-6.22.35-9.29,3-.49,6-.14,8.93-.2,3.14-.07,6.28.07,9.42-.05,1.58-.06,1.9.54,1.89,2-.06,7,0,14,0,21,0,3.85-.1,7.71,0,11.56.19,5.61-2.9,9.07-7.24,11.9a9.92,9.92,0,0,1-5.93,1.65c-4.86-.11-9.72-.14-14.57,0-5.11.14-8.71-2.4-11.42-6.32a12,12,0,0,1-2.08-7.07c.11-18.57.3-37.14-.08-55.69C109.45,7.2,116.86-.54,122.86,0a110.36,110.36,0,0,0,14.55.05C142.9-.13,146.27,3,149.14,7a9.59,9.59,0,0,1,1.77,6.74c-.17,1.56,0,3.14,0,4.71,0,2.18,0,2.22-2,2.23-3.42,0-6.85,0-10.28,0-1.11,0-1.53-.44-1.46-1.51.15-2.24-.28-4.35-2.72-5a15.74,15.74,0,0,0-8.34,0c-2.24.63-2.66,2.52-2.65,4.62,0,5.57,0,11.14,0,16.71Z"/><path class="cls-1" d="M96,37c0,10.7-.36,21.43.13,32.12.28,6-7.12,14.11-13.65,13.4a102.33,102.33,0,0,0-14.12-.07c-5.61.16-9.06-2.9-11.89-7.24a10.3,10.3,0,0,1-1.67-5.93q.09-32.78,0-65.54c0-.86,0-1.71,0-2.57a.91.91,0,0,1,1-1H67.47c1,0,1.15.58,1.13,1.39,0,1,0,2,0,3v57.4a21.86,21.86,0,0,0,0,2.56c.33,2.73,1.51,3.94,4.19,4.18a35.71,35.71,0,0,0,5.57,0,4.22,4.22,0,0,0,3.91-4c.08-1,0-2,0-3v-57c0-1,0-2,0-3S82.48.08,83.68.1c3.71.06,7.43,0,11.14,0C95.73.12,96,.6,96,1.44c0,2.43,0,4.86,0,7.29Z"/><path class="cls-1" d="M164.58,41q0-19.28,0-38.55c0-2.22,0-2.28,1.94-2.28,12.42,0,24.84,0,37.26,0,1.42,0,2.05.28,2,1.88-.13,3.28,0,6.56-.05,9.85,0,2-.06,2-2.2,2q-11.36,0-22.71,0c-2.63,0-2.52-.13-2.51,2.58,0,5.42,0,10.85,0,16.28,0,1.26.37,1.75,1.68,1.73,3.43-.07,6.86,0,10.28,0,1.21,0,1.83.24,1.8,1.63-.07,3.56,0,7.14,0,10.7,0,1.17-.53,1.44-1.55,1.44-3.57,0-7.14,0-10.71,0-1.08,0-1.5.37-1.49,1.48,0,5.85.05,11.7,0,17.56,0,1.49.78,1.54,1.87,1.54,7.14,0,14.28,0,21.42,0,1,0,2,0,3,0s1.23.5,1.18,1.34c0,.14,0,.28,0,.42L205.58,82c-3.77,1-7.61.36-11.41.4-8.85.11-17.7,0-26.55,0-3.3,0-3,.36-3-2.91Q164.57,60.23,164.58,41Z"/></g></g></svg>