<svg xmlns="http://www.w3.org/2000/svg" viewBox="0 0 619.29 282.2"><defs><style>.cls-1{fill:#fff;}.cls-2{fill:#ceff00;}</style></defs><g id="Layer_2" data-name="Layer 2"><g id="Layer_1-2" data-name="Layer 1"><path class="cls-1" d="M111.82,157.58a60.23,60.23,0,0,1-16.3-2,34.2,34.2,0,0,1-12.15-6,26,26,0,0,1-7.6-9.75,31.92,31.92,0,0,1-2.65-13.38,31.59,31.59,0,0,1,2.65-13.33,25.7,25.7,0,0,1,7.6-9.67A34.66,34.66,0,0,1,95.52,97.5a60.23,60.23,0,0,1,16.3-2,60.23,60.23,0,0,1,16.3,2,34.74,34.74,0,0,1,12.19,6,26,26,0,0,1,7.64,9.71,34.68,34.68,0,0,1,0,26.59,26.33,26.33,0,0,1-7.64,9.75,34.29,34.29,0,0,1-12.19,6A60.23,60.23,0,0,1,111.82,157.58Zm0-19.27a23.35,23.35,0,0,0,7.52-1,11.87,11.87,0,0,0,4.55-2.69,8.38,8.38,0,0,0,2.24-3.78,16.72,16.72,0,0,0,.57-4.39,16.44,16.44,0,0,0-.57-4.3,8.57,8.57,0,0,0-2.2-3.78,11.05,11.05,0,0,0-4.55-2.65,24.41,24.41,0,0,0-7.56-1,24,24,0,0,0-7.52,1,11.38,11.38,0,0,0-4.51,2.61,8.22,8.22,0,0,0-2.2,3.73,16.83,16.83,0,0,0-.57,4.39,17.19,17.19,0,0,0,.57,4.43,8.17,8.17,0,0,0,2.2,3.78,11.79,11.79,0,0,0,4.51,2.65A23.3,23.3,0,0,0,111.82,138.31Z"/><path class="cls-1" d="M205.22,97.1q11.15,0,17.4,6t6.26,16.71q0,10.65-6.26,16.62t-17.4,6h-24.3V156h-23V97.1Zm-5.36,26.09h2.07a4,4,0,0,0,1.59-.28,2.3,2.3,0,0,0,1-1,5.87,5.87,0,0,0,0-4.31,2.27,2.27,0,0,0-1-1,4,4,0,0,0-1.59-.29h-21v6.83Z"/><path class="cls-1" d="M287,156l-4.23-9.59H253.1L248.88,156H224.49L251.4,97.1h33.08L311.39,156ZM260.34,130.1h15.2L268,113Z"/><path class="cls-1" d="M340.17,136.69h36.74V156H317.16V97.1h23Z"/><path class="cls-1" d="M208,232.45H162.3V168.6H208a30.59,30.59,0,0,1,10.63,1.9,26,26,0,0,1,9.26,5.93,29.31,29.31,0,0,1,6.45,10,42.32,42.32,0,0,1,0,28.21,29.31,29.31,0,0,1-6.45,10,25.93,25.93,0,0,1-9.27,5.93A30.49,30.49,0,0,1,208,232.45Zm-40.66-5H208a25.41,25.41,0,0,0,8.89-1.59,20.85,20.85,0,0,0,7.48-4.8,24.56,24.56,0,0,0,5.34-8.3,37.45,37.45,0,0,0,0-24.47,24.39,24.39,0,0,0-5.33-8.3,21,21,0,0,0-7.48-4.8A25.41,25.41,0,0,0,208,173.6H167.3Zm35.13-14.26H185.3V187.86h17.13a11.5,11.5,0,0,1,4.78,1,9.1,9.1,0,0,1,4.11,4c1,1.82,1.5,4.31,1.5,7.65a15.82,15.82,0,0,1-1.49,7.58,9.06,9.06,0,0,1-4.12,4A11.46,11.46,0,0,1,202.43,213.19Zm-12.13-5h12.13a6.52,6.52,0,0,0,2.71-.59,4.21,4.21,0,0,0,1.81-1.89,11.23,11.23,0,0,0,.87-5.18c0-3-.47-4.5-.86-5.21a4.17,4.17,0,0,0-1.82-1.87,6.52,6.52,0,0,0-2.71-.59H190.3Z"/><path class="cls-1" d="M269.12,232.45h-28V168.6h28Zm-23-5h18V173.6h-18Z"/><path class="cls-1" d="M315.71,234.08a62.72,62.72,0,0,1-16.29-2,38.21,38.21,0,0,1-13.08-6.14,28.64,28.64,0,0,1-8.73-10.63,34,34,0,0,1-3.09-14.87,33.38,33.38,0,0,1,3.1-14.79,29.86,29.86,0,0,1,8.51-10.55,36,36,0,0,1,12.58-6.17,57.38,57.38,0,0,1,15.3-2,55.36,55.36,0,0,1,14.43,1.8A39,39,0,0,1,340,173.86a26.72,26.72,0,0,1,8,8.11,22.06,22.06,0,0,1,3.31,10.72l.12,2.61H322.68l-.65-1.51a2.46,2.46,0,0,0-.43-.59,3.71,3.71,0,0,0-1.06-.74,11.64,11.64,0,0,0-2.45-.85,16.57,16.57,0,0,0-3.84-.37c-7.49,0-10.83,3.14-10.83,10.18a16.89,16.89,0,0,0,.62,4.84,6.16,6.16,0,0,0,1.83,2.88,9.44,9.44,0,0,0,4,1.89,30.38,30.38,0,0,0,7.35.73,34.15,34.15,0,0,0,7-.63,36.92,36.92,0,0,0,4.11-1.13v-9H351.3v24l-1.27.72A62,62,0,0,1,341,230a63.22,63.22,0,0,1-8.64,2.49,67.84,67.84,0,0,1-8.35,1.23C321.24,234,318.47,234.08,315.71,234.08ZM314,172a52.43,52.43,0,0,0-14,1.78,30.92,30.92,0,0,0-10.84,5.3,24.87,24.87,0,0,0-7.09,8.8,28.48,28.48,0,0,0-2.59,12.59,29.1,29.1,0,0,0,2.59,12.7,23.73,23.73,0,0,0,7.22,8.79,33.17,33.17,0,0,0,11.38,5.32,57.67,57.67,0,0,0,15,1.83c2.62,0,5.26-.11,7.85-.32a63.64,63.64,0,0,0,7.74-1.13,58.15,58.15,0,0,0,7.94-2.3,53.51,53.51,0,0,0,7.06-3.2V206H333.25v7.4l-1.57.63a41,41,0,0,1-6.5,2,39.26,39.26,0,0,1-8,.74,34.86,34.86,0,0,1-8.59-.89,14.28,14.28,0,0,1-6-3,11.14,11.14,0,0,1-3.29-5.16,21.64,21.64,0,0,1-.84-6.3c0-9.79,5.62-15.18,15.83-15.18a21.16,21.16,0,0,1,5,.52,15.86,15.86,0,0,1,3.57,1.26,8.6,8.6,0,0,1,2.51,1.87l.35.41H346a16.67,16.67,0,0,0-2.24-5.69,22.06,22.06,0,0,0-6.5-6.6,34.29,34.29,0,0,0-10.12-4.42A50.53,50.53,0,0,0,314,172Z"/><path class="cls-1" d="M385.43,232.45h-28V168.6h28Zm-23-5h18V173.6h-18Z"/><path class="cls-1" d="M442.82,232.45h-28V192.86H391.07V168.6h75.4v24.26H442.82Zm-23-5h18V187.86h23.65V173.6h-65.4v14.26h23.74Z"/><path class="cls-1" d="M550.16,232.45H520.25L516,222.86H489.61l-4.23,9.59H455.47l29.2-63.85H521Zm-26.65-5h18.86L517.75,173.6H487.88l-24.62,53.85h18.86l4.23-9.59h32.93Zm-9.25-20.85H491.35l11.52-25.72Zm-15.19-5h7.5l-3.73-8.42Z"/><path class="cls-1" d="M619.29,232.45H554.54V168.6h28v39.59h36.75Zm-59.75-5h54.75V213.19H577.54V173.6h-18Z"/><path class="cls-2" d="M148.65,246.45c-5.86,8-12.42,14.06-19.49,17.79-11,5.79-23.06,6-35.93.51-20.09-8.52-38.85-24.22-52.81-44.2a144.5,144.5,0,0,1-25.64-72C12.41,116.3,13.25,85.57,17.16,62,21.69,34.57,30,18.14,41.24,14.45c10.72-3.51,19,2.46,34,14.22C85.91,37,98,46.51,114.49,53.24c12.1,4.92,24.16,15.58,34.29,29.86h16.09c-12.47-20.22-28.74-35.57-45.3-42.32-14.76-6-26-14.87-36-22.69C68.93,6.6,55.1-4.26,37,1.68,20.41,7.14,9.21,26.78,3.76,60.06-1.63,93,0,130.23,1.37,149.5c4.14,56.13,39,107.42,86.61,127.63a60,60,0,0,0,23.42,5.07h0a51.11,51.11,0,0,0,24-6.06c11.24-5.93,21.16-16,29.4-29.69Z"/></g></g></svg>