<?xml version="1.0" encoding="utf-8"?>
<!-- Generator: Adobe Illustrator 25.3.1, SVG Export Plug-In . SVG Version: 6.00 Build 0)  -->
<svg version="1.1" id="Layer_1" xmlns="http://www.w3.org/2000/svg" xmlns:xlink="http://www.w3.org/1999/xlink" x="0px" y="0px"
	 viewBox="0 0 1629.1 382.6" style="enable-background:new 0 0 1629.1 382.6;" xml:space="preserve">
<style type="text/css">
	.st0{display:none;clip-path:url(#SVGID_2_);}
	.st1{display:inline;fill:#CBFC02;}
	.st2{display:none;clip-path:url(#SVGID_4_);}
	.st3{display:none;clip-path:url(#SVGID_6_);}
	.st4{fill:#CBFC02;}
</style>
<g>
	<g>
		<g>
			<defs>
				<path id="SVGID_1_" d="M63.5,273.2C29,268.7,0,293.7,0,327.2c0,30,26,60.5,59,54.7c39.5-6.9,218.5-40.8,228-43.3
					c9.5-2.5,12-6.2,12-10.8c0-4.5-2.8-10.3-12.8-11.8C276.2,314.7,91,276.9,63.5,273.2"/>
			</defs>
			<use xlink:href="#SVGID_1_"  style="overflow:visible;fill:inherit;"/>
			<clipPath id="SVGID_2_">
				<use xlink:href="#SVGID_1_"  style="overflow:visible;"/>
			</clipPath>
			
				<g transform="matrix(1.0800000429153442,-0.000006840177775302436,0.000006840177775302436,1.0800000429153442,-88.10101318359375,111.40225982666016)" class="st0">
				
					<rect x="-49.1" y="-70" transform="matrix(-1 -3.946300e-06 3.946300e-06 -1 441.8507 400.0561)" class="st1" width="540" height="540"/>
			</g>
		</g>
		<g>
			<defs>
				<path id="SVGID_3_" d="M317.8,344.9c13.3,32.1,49.5,44.7,78.5,28c26-15,39.4-52.8,17.9-78.5c-25.7-30.8-144.5-168.8-151.4-175.7
					c-6.9-7-11.4-7.3-15.3-5c-3.9,2.3-7.5,7.5-3.8,16.9C247.4,140,307.3,319.2,317.8,344.9"/>
			</defs>
			<use xlink:href="#SVGID_3_"  style="overflow:visible;fill:inherit;"/>
			<clipPath id="SVGID_4_">
				<use xlink:href="#SVGID_3_"  style="overflow:visible;"/>
			</clipPath>
			
				<g transform="matrix(-0.5400059223175049,-0.9353041052818298,0.9353041052818298,-0.5400059223175049,267.5738830566406,716.4240112304688)" class="st2">
				
					<rect x="85.1" y="-7.5" transform="matrix(-2.424148e-06 -1 1 -2.424148e-06 92.6492 617.6224)" class="st1" width="540" height="540"/>
			</g>
		</g>
		<g>
			<defs>
				<path id="SVGID_5_" d="M253.8,89.4c21.1-27.6,14.1-65.2-15-81.9c-26-15-65.4-7.6-76.9,23.7c-13.8,37.6-73.8,209.2-76.4,218.7
					c-2.6,9.5-0.6,13.5,3.3,15.8c3.9,2.3,10.3,2.7,16.6-5.2C111.7,252.6,236.8,111.3,253.8,89.4"/>
			</defs>
			<use xlink:href="#SVGID_5_"  style="overflow:visible;fill:inherit;"/>
			<clipPath id="SVGID_6_">
				<use xlink:href="#SVGID_5_"  style="overflow:visible;"/>
			</clipPath>
			
				<g transform="matrix(-0.5399941205978394,0.9353109002113342,-0.9353109002113342,-0.5399941205978394,614.88037109375,106.1738052368164)" class="st3">
				<rect x="-36.1" y="77.5" class="st1" width="540" height="540"/>
			</g>
		</g>
		<path class="st4" d="M589.8,188.3c7.9,8.1,11.9,18.4,11.9,30.9v10.1c0,13.7-4,25.1-11.9,34.3c-7.9,9.2-20.8,13.8-38.5,13.8h-65.6
			c-1.4,0-2.5-0.5-3.5-1.4c-1-0.9-1.5-2.1-1.5-3.4v-20.8c0-1.3,0.5-2.5,1.5-3.4c1-0.9,2.2-1.4,3.5-1.4h52.4c11,0,18.8-1.3,23.3-3.8
			c4.6-2.5,6.8-7.4,6.8-14.7v-8.4c0-5.4-1.9-9-5.6-10.9c-3.7-1.9-10.1-2.8-19.3-2.8h-10.9c-17.4,0-30.2-4.6-38.3-13.7
			c-8.1-9.1-12.2-20.6-12.2-34.5v-5.1c0-13.7,4-25.1,11.9-34.3c7.9-9.2,20.8-13.8,38.5-13.8h60.3c1.3,0,2.5,0.5,3.5,1.4
			c1,0.9,1.5,2.1,1.5,3.4v20.8c0,1.4-0.5,2.5-1.5,3.4c-1,0.9-2.2,1.4-3.5,1.4h-49.7c-10,0-17.1,1.3-21.3,3.8
			c-4.2,2.5-6.3,7.4-6.3,14.7v3.3c0,7.3,1.9,12.2,5.6,14.8c3.7,2.6,10.1,3.9,19.3,3.9h10.9C569.1,176.1,581.9,180.2,589.8,188.3"/>
		<path class="st4" d="M728.5,175.1c-3.5-9.5-9.3-16.4-17.6-20.8c-8.3-4.4-19.9-6.6-35-6.6c-14.9,0-26.5,2.2-34.8,6.5
			c-8.4,4.3-14.3,11.2-17.7,20.8c-3.5,9.5-5.2,22.6-5.2,39.1c0,16.6,1.7,29.6,5.2,39c3.5,9.5,9.3,16.4,17.6,20.8
			c8.3,4.4,19.9,6.6,35,6.6c14.9,0,26.5-2.2,34.8-6.5c8.4-4.3,14.3-11.2,17.7-20.8c3.5-9.5,5.2-22.6,5.2-39.1
			C733.7,197.6,732,184.6,728.5,175.1z M697.5,242.5c-1.4,4.1-3.8,6.8-7.2,8.1c-3.5,1.4-8.2,2-14.3,2c-6.1,0-10.9-0.7-14.3-2
			c-3.5-1.3-5.9-4.1-7.2-8.1c-1.9-6.2-2.8-15.7-2.8-28.4s0.9-22.1,2.8-28.4c1.3-4.1,3.8-6.8,7.2-8.1c3.5-1.3,8.2-2,14.3-2
			c6.1,0,10.8,0.7,14.3,2c3.5,1.4,5.9,4.1,7.2,8.1c1.9,6.3,2.8,15.7,2.8,28.4S699.4,236.3,697.5,242.5z"/>
		<path class="st4" d="M786.8,235.9c1.3,6.1,3.6,10,7,11.7c2.9,1.7,7.4,2.5,13.7,2.5h33.2c1.3,0,2.5,0.5,3.4,1.5
			c0.9,1,1.4,2.2,1.4,3.5v17.5c0,1.4-0.5,2.5-1.5,3.4c-1,0.9-2.2,1.4-3.5,1.4h-37c-23.7,0-39.1-8.2-46.4-24.6c-3.7-10-5.6-23-5.6-39
			c0-15.7,1.9-28.5,5.6-38.5c7.3-16.4,22.7-24.6,46.4-24.6h37c1.3,0,2.5,0.5,3.5,1.4c1,0.9,1.5,2.1,1.5,3.4v17.5
			c0,1.4-0.5,2.5-1.4,3.5c-0.9,1-2.1,1.5-3.4,1.5h-33.2c-6.2,0-10.8,0.8-13.7,2.5c-5.9,2.9-8.9,13.9-8.9,33.2
			C784.9,222.5,785.5,229.9,786.8,235.9"/>
		<path class="st4" d="M865.3,130.9c-3.1-3.1-4.7-7.9-4.7-14.3c0-6.4,1.6-11.2,4.7-14.3c3.1-3.1,7.9-4.7,14.3-4.7
			c6.4,0,11.2,1.6,14.3,4.7c3.1,3.1,4.7,7.9,4.7,14.3c0,6.4-1.6,11.2-4.7,14.3c-3.1,3.1-7.9,4.7-14.3,4.7
			C873.2,135.6,868.5,134,865.3,130.9"/>
		<path class="st4" d="M864.6,276.1c-0.9-0.9-1.4-2.1-1.4-3.4V155.9c0-1.3,0.5-2.5,1.4-3.5c0.9-1,2.1-1.5,3.4-1.5h23.1
			c1.4,0,2.5,0.5,3.5,1.5c1,1,1.5,2.2,1.5,3.5v116.8c0,1.4-0.5,2.5-1.5,3.4c-1,0.9-2.2,1.4-3.5,1.4H868
			C866.7,277.5,865.5,277,864.6,276.1"/>
		<path class="st4" d="M1013.1,163.2c-7.2-8.3-18.9-12.4-35.1-12.4h-46.1c-1.4,0-2.5,0.5-3.5,1.4c-1,0.9-1.5,2.1-1.5,3.4v17.7
			c0,1.4,0.5,2.5,1.4,3.5c0.9,1,2.1,1.5,3.4,1.5l36.7-0.3c6.6-0.2,11.4,0.3,14.4,1.3c3,1,5.2,2.8,6.3,5.3c1.2,2.5,1.8,6.4,1.8,11.7
			v4.8c-6.9-1.9-15.2-2.8-24.8-2.8c-16,0-28.3,3.3-36.9,10c-8.5,6.7-12.8,16.3-12.8,29c0,14.4,4.1,25.1,12.2,32.3
			c8.1,7.2,22,10.8,41.6,10.8c21.6,0,39.5-3.2,53.7-9.6v-76.5C1023.8,181.9,1020.2,171.5,1013.1,163.2z M990.9,250.6
			c-4.6,1.7-10.8,2.5-18.7,2.5c-7.9,0-13.7-1.1-17.4-3.2c-3.6-2.1-5.4-6.3-5.4-12.5c0-4.6,1.5-8.1,4.4-10.5c3-2.4,8-3.7,15.1-3.7
			c8.1,0,15.5,0.9,22,2.8V250.6z"/>
		<path class="st4" d="M1049.3,268.1c-5.2-6.2-7.7-15.4-7.7-27.4V105.2c0-1.3,0.5-2.5,1.4-3.5c0.9-1,2.1-1.5,3.4-1.5h23.1
			c1.3,0,2.5,0.5,3.5,1.5c1,1,1.5,2.2,1.5,3.5v133.5c0,3.5,0.8,6.3,2.4,8.4c1.6,2,4,3,7.2,3h6.1c2.9,0,4.8,0.7,5.7,2.2
			c0.9,1.4,1.4,3.5,1.4,6.2v10.4c0,2.7-0.6,4.8-1.6,6.3c-1.1,1.5-3.3,2.3-6.5,2.3h-17C1062.1,277.5,1054.4,274.4,1049.3,268.1"/>
		<path class="st4" d="M1163.7,147.8c-21.8,0-39.7,4.1-53.7,12.2v158.4c0,1.3,0.5,2.5,1.4,3.4c0.9,0.9,2.1,1.4,3.4,1.4h23.1
			c1.3,0,2.5-0.5,3.5-1.4c1-0.9,1.5-2.1,1.5-3.4v-40.8h27.4c16.4,0,29.6-5.5,39.7-16.5c10-11,15.1-27,15.1-48.1
			C1225,169.5,1204.6,147.8,1163.7,147.8z M1185.7,241.1c-4.2,6-10.7,9-19.5,9h-23.3v-72c4.9-1.7,11.1-2.5,18.7-2.5
			c11.3,0,19.2,2.9,23.7,8.6c4.5,5.7,6.7,15.3,6.7,28.6C1192.1,225.7,1189.9,235.1,1185.7,241.1z"/>
		<path class="st4" d="M1349.3,175.1c-3.5-9.5-9.3-16.4-17.6-20.8c-8.3-4.4-19.9-6.6-35-6.6c-14.9,0-26.5,2.2-34.8,6.5
			c-8.4,4.3-14.3,11.2-17.7,20.8c-3.5,9.5-5.2,22.6-5.2,39.1c0,16.6,1.7,29.6,5.2,39c3.5,9.5,9.3,16.4,17.6,20.8
			c8.3,4.4,19.9,6.6,35,6.6c14.9,0,26.5-2.2,34.8-6.5c8.4-4.3,14.3-11.2,17.7-20.8c3.5-9.5,5.2-22.6,5.2-39.1
			C1354.5,197.6,1352.7,184.6,1349.3,175.1z M1318.2,242.5c-1.4,4.1-3.8,6.8-7.2,8.1c-3.5,1.4-8.2,2-14.3,2c-6.1,0-10.9-0.7-14.3-2
			c-3.5-1.3-5.9-4.1-7.2-8.1c-1.9-6.2-2.8-15.7-2.8-28.4s0.9-22.1,2.8-28.4c1.3-4.1,3.8-6.8,7.2-8.1c3.5-1.3,8.2-2,14.3-2
			c6.1,0,10.9,0.7,14.3,2c3.5,1.4,5.9,4.1,7.2,8.1c1.9,6.3,2.8,15.7,2.8,28.4S1320.1,236.3,1318.2,242.5z"/>
		<path class="st4" d="M1372.3,276.1c-0.9-0.9-1.4-2.1-1.4-3.4V155.9c0-1.3,0.5-2.5,1.4-3.5c0.9-1,2.1-1.5,3.4-1.5h23.1
			c1.4,0,2.5,0.5,3.5,1.5c1,1,1.5,2.2,1.5,3.5v116.8c0,1.4-0.5,2.5-1.5,3.4c-1,0.9-2.2,1.4-3.5,1.4h-23.1
			C1374.4,277.5,1373.2,277,1372.3,276.1"/>
		<path class="st4" d="M1536.6,200.2v72.5c0,1.4-0.5,2.5-1.5,3.4c-1,0.9-2.2,1.4-3.5,1.4h-23.1c-1.4,0-2.5-0.5-3.4-1.4
			c-0.9-0.9-1.4-2.1-1.4-3.4v-72c0-8.8-1.9-15.2-5.7-19.1c-3.8-4-10.3-6-19.6-6c-7.6,0-13.9,1.1-18.7,3.3v93.7
			c0,1.4-0.5,2.5-1.5,3.4c-1,0.9-2.2,1.4-3.5,1.4h-23.1c-1.4,0-2.5-0.5-3.4-1.4c-0.9-0.9-1.4-2.1-1.4-3.4V162.5
			c13.3-9.8,30.4-14.7,51.2-14.7C1517,147.8,1536.6,165.3,1536.6,200.2"/>
		<path class="st4" d="M1600.2,178.2v61.3c0,3,0.8,5.6,2.4,7.6c1.6,2,4,3,7.2,3h12.2c4.7,0,7.1,3.2,7.1,9.6v9.1
			c0,2.7-0.6,4.8-1.6,6.3c-1.1,1.5-3.3,2.3-6.5,2.3h-23.1c-20.4,0-30.7-12.2-30.7-36.7v-62.6h-18c-1.4,0-2.5-0.5-3.5-1.4
			c-1-0.9-1.5-2.1-1.5-3.4v-17.5c0-1.3,0.5-2.5,1.5-3.5c1-1,2.2-1.5,3.5-1.5h18v-27.9c0-1.4,0.5-2.5,1.4-3.5c0.9-1,2.1-1.5,3.4-1.5
			h23.1c1.3,0,2.5,0.5,3.5,1.5c1,1,1.5,2.2,1.5,3.5v27.9h23.8c1.3,0,2.5,0.5,3.5,1.4c1,0.9,1.5,2.1,1.5,3.4v17.5
			c0,1.4-0.5,2.5-1.5,3.5c-1,1-2.2,1.5-3.5,1.5H1600.2"/>
		<path class="st4" d="M1373.1,130.9c-3.1-3.1-4.7-7.9-4.7-14.3c0-6.4,1.6-11.2,4.7-14.3c3.1-3.1,7.9-4.7,14.3-4.7
			c6.4,0,11.2,1.6,14.3,4.7c3.1,3.1,4.7,7.9,4.7,14.3c0,6.4-1.6,11.2-4.7,14.3c-3.1,3.1-7.9,4.7-14.3,4.7
			C1381,135.6,1376.2,134,1373.1,130.9"/>
	</g>
</g>
</svg>
