<svg xmlns="http://www.w3.org/2000/svg" viewBox="0 0 306.59 53.47"><defs><style>.cls-1{fill:#cbfc02;}</style></defs><g id="Layer_2" data-name="Layer 2"><g id="Layer_1-2" data-name="Layer 1"><path class="cls-1" d="M130.48,53.35a10.86,10.86,0,0,0-1.51,0c-3.46.49-6.59-.79-9.73-1.88a14.1,14.1,0,0,1-3.78-2.2,24.67,24.67,0,0,1-7.76-9.78,34.92,34.92,0,0,1-1.91-7,28.19,28.19,0,0,1-.49-7.08c.33-6.06,2-11.8,5.69-16.61A22,22,0,0,1,123.7.72C126.9,0,130,.35,133.21.21c4.73-.21,8.67,1.7,12.51,4.33a18.3,18.3,0,0,1,6.33,8.29c.93,2.14.65,2.26-1.37,3-1.26.45-2.54.93-3.84,1.3s-2.5,1.26-3.55,1-1.42-1.95-2-3a10.73,10.73,0,0,0-5.68-4.36c-4.71-1.85-9.09-.8-13.13,1.71a12.44,12.44,0,0,0-5,7.15,19.8,19.8,0,0,0-1.2,8.08c.36,3.07.8,6.17,2.38,9,2.08,3.67,5.26,5.53,9.34,6.49a16.06,16.06,0,0,0,7.45-.4,11.23,11.23,0,0,0,8-6.4c.59-1.25,1.24-.89,2-.51a47,47,0,0,0,7.25,3c.85.25,1.06,1,.65,1.85a21,21,0,0,1-6.72,8.07,30.3,30.3,0,0,1-9.47,4.37,6.42,6.42,0,0,1-1.76.16c-1.62,0-3.23,0-4.84,0Z"/><path class="cls-1" d="M76.38,53.35h-3c-5.52.07-10-2.31-14.07-5.79-3.37-2.91-5.35-6.7-6.81-10.86A17.76,17.76,0,0,1,52,34.11a41.91,41.91,0,0,1,0-15.35,23.48,23.48,0,0,1,7.52-13c4.19-3.54,9-5.89,14.76-5.58a28.44,28.44,0,0,0,4.23,0c4.24-.39,8,1.2,11.4,3.29a18.71,18.71,0,0,1,8.4,10.67c.24.78.18.95-.61,1.19-2.77.85-5.53,1.76-8.25,2.75-.78.28-.91.15-1.25-.57a12.34,12.34,0,0,0-3.41-4.78,12.42,12.42,0,0,0-10.47-2.57A14.66,14.66,0,0,0,68,12.78,10.85,10.85,0,0,0,65.79,15a16.4,16.4,0,0,0-3.47,11,27.66,27.66,0,0,1,0,3c-.24,4.08,1.58,7.52,4.09,10.36,1.81,2.05,4.32,3.78,7.42,3.65,1,0,1.56.8,2.55.65C81.22,43,85.92,42,88.55,37.18c.09-.17.28-.29.39-.45.33-.45.55-1.08,1-1.29.27-.13.84.39,1.29.58,2.06.85,4.14,1.66,6.19,2.54s2.13,1.14,1.14,3C95.39,47.45,90.46,51,84.06,52.78,81.39,53.52,78.73,53.22,76.38,53.35Z"/><path class="cls-1" d="M161.5,26.78q0-12.21,0-24.44c0-1.49,0-1.53,1.43-1.53,7.46,0,14.91-.07,22.36,0,2.79,0,5.28,1.31,7.63,2.7,4.69,2.76,6.36,7.21,6.66,12.35.07,1.21-.09,2.43,0,3.62.36,3.45-1.17,6.33-2.83,9.1-1.81,3-5.38,5-9,6.08-2.28.66-4.52.46-6.79.53s-4.63,0-6.95,0c-2,0-2.28.29-2.29,2.21,0,4.43,0,8.85,0,13.28,0,2.07.24,2-1.88,2-2.31,0-4.63,0-6.94,0-1.43,0-1.46,0-1.46-1.52Q161.5,39,161.5,26.78Zm10.29-8.46c0,2.21,0,4.43,0,6.64,0,.89.26,1.24,1.19,1.23,2.92-.05,5.84-.1,8.76,0a6.1,6.1,0,0,0,3.07-.85c4.69-2.54,5.38-10.39,1.69-13.32A10.92,10.92,0,0,0,180.82,10a47.24,47.24,0,0,0-7.24-.07c-1.36,0-1.75.43-1.78,1.8C171.75,13.9,171.79,16.11,171.79,18.32Z"/><path class="cls-1" d="M5.44.8c1.41,0,2.83,0,4.23,0A1.69,1.69,0,0,1,11.53,2c1.41,3.81,2.86,7.6,4.22,11.42,1.68,4.73,3.32,9.48,5.21,14.14,1.24,3,2.2,6.18,3.28,9.28.09.25.21.49.31.73.23-.2.55-.35.66-.6.4-.87.72-1.79,1.05-2.7,2.4-6.73,4.9-13.43,7.35-20.14,1.53-4.17,3.06-8.34,4.52-12.54a.92.92,0,0,1,1-.74h9.67c.89,0,.51.37.32.87C47.85,5.31,46.64,9,45.29,12.59c-2.48,6.61-5.06,13.18-7.54,19.78-1.73,4.61-3.43,9.24-5,13.9-.59,1.74-1.7,3.28-1.88,5.18-.09.92-.75,1.31-1.7,1.3q-4.38,0-8.76,0a1.56,1.56,0,0,1-1.58-1.12c-1.49-4-2.9-8-4.42-12-2.65-7-5.39-13.88-8-20.83-1.55-4.06-3-8.16-4.5-12.24C1.32,5.15.67,3.74.14,2.29-.23,1.29.12.83,1.22.81,2.62.78,4,.8,5.44.8Z"/><path class="cls-1" d="M238.53,53.32a19.71,19.71,0,0,1-11.9-2.84A21,21,0,0,1,218.89,43a28,28,0,0,1-4-11.45,39,39,0,0,1,.3-10.1,28.79,28.79,0,0,1,2.9-9.12A22.37,22.37,0,0,1,231.88,1a25.12,25.12,0,0,1,17.86,1.33,18.36,18.36,0,0,1,9.42,9.29c.46,1.07,1.49,2.2,1.32,3.14-.19,1.15-1.93,1-3,1.45-2.39,1.17-2.48,1.13-3.7-1.44a14.51,14.51,0,0,0-7.45-7.31A12.05,12.05,0,0,0,241,6.26c-2.36.11-4.72-.31-7.09.53-5.17,1.83-9,4.87-11,10.15a18.16,18.16,0,0,0-1.58,6.78c0,1.18-.78,2.18-.61,3.45.64,4.74,1.22,9.46,4.23,13.48a16.3,16.3,0,0,0,11.3,6.73,22,22,0,0,0,8.26-.66A13.84,13.84,0,0,0,254,39.45c.14-.26.3-.51.44-.77.66-1.21.78-1.25,2-.74s2.29,1.07,3.48,1.48c.83.28.76.59.46,1.28a19.65,19.65,0,0,1-5.47,7.39c-3.25,2.75-7.08,4.08-11,5.16C242.3,53.69,240.48,53.32,238.53,53.32Z"/><path class="cls-1" d="M302.53,52.74c-2.41.85-3.88-.79-5.3-3-3.48-5.43-7.12-10.75-10.71-16.11-.22-.33-.56-.58-.81-.89-.42-.55-.79-.45-1.13,0-2.33,3.39-4.65,6.77-7,10.17-1.93,2.83-3.81,5.68-5.75,8.5a2.58,2.58,0,0,1-2.51,1.3c-1.3-.13-2.62,0-3.93,0-.54,0-1.37.33-1.54-.33-.1-.42.45-1,.79-1.52Q269.27,44.4,273.9,38c2.33-3.27,4.34-6.76,6.91-9.85a1.51,1.51,0,0,0-.05-2.13c-3.29-4.63-6.52-9.29-9.77-13.95L263.92,1.91c-.35-.51-.31-1,.38-1.06,1.91-.07,3.83,0,5.74,0a1.66,1.66,0,0,1,1.44.93c3.46,5.1,6.89,10.21,10.35,15.31,1.09,1.6,2.21,3.19,3.31,4.79a38.75,38.75,0,0,0,3.36-4.78C292,12,295.66,7,298.84,1.74A1.59,1.59,0,0,1,300.26.8c1.92,0,3.83,0,5.74,0,.7,0,.46.36.21.74-1.74,2.7-3.3,5.55-5.27,8.08-1.63,2.11-3,4.36-4.55,6.51-2.24,3.09-4.33,6.28-6.53,9.39a2,2,0,0,0,0,2.81,68.93,68.93,0,0,1,4.37,6.27c3,4.34,6.23,8.57,9.17,13,.87,1.31,2.08,2.36,2.77,3.8.16.35.53.65.31,1s-.7.29-1.09.3Z"/></g></g></svg>