<svg xmlns="http://www.w3.org/2000/svg" viewBox="0 0 998.25 998.25"><defs><style>.cls-1{fill:#ceff00;}</style></defs><g id="Layer_2" data-name="Layer 2"><g id="Layer_1-2" data-name="Layer 1"><rect class="cls-1" width="998.25" height="998.25" rx="134.29"/><path d="M339.92,469.51q0,46.9,23.46,85.15t59.85,60.47q36.39,22.2,75.89,22.21,56.75,0,95-40.72t38.26-100q0-37-19.13-70.34t-56.15-53.69q-37-20.36-86.38-20.36-80.24,0-138.21,20.36A915.44,915.44,0,0,0,219,421.38l99.95-196.22q27.13-17.26,79.61-33.31t100.57-16q87.61,0,161.67,43.81A330.42,330.42,0,0,1,778.64,337.46q43.8,74.06,43.81,161.67T778.64,661.41q-43.83,74.67-117.85,117.85T499.12,822.45q-87.63,0-161.66-42.57T220.22,664.49L343.63,422.61Q339.93,452.24,339.92,469.51Z"/></g></g></svg>